# xmcd
#
# Track frame offsets:
#	150
#	50884
#	65172
#	80187
#	105657
#	120292
#	148814
#
# Disc length: 2760 seconds
#
# Revision: 1
# Processed by: cddbd v1.5.2PL0 Copyright (c) Steve Scherf et al.
# Submitted via: audiograbber 1.83.01
#
DISCID=6a0ac607
DTITLE=Darwinsbitch - Ore
DYEAR=2009
DGENRE=Electronic
TTITLE0=Iron Lake
TTITLE1=Catalysis
TTITLE2=Induction Cuts
TTITLE3=Silver Sphere
TTITLE4=Flames In Blackened Sky
TTITLE5=Raven's Dissipation
TTITLE6=Shadow Leaves
EXTD=
EXTT0=
EXTT1=
EXTT2=
EXTT3=
EXTT4=
EXTT5=
EXTT6=
PLAYORDER=
